<svg xmlns="http://www.w3.org/2000/svg" viewBox="0 0 551.000000 98.000000" role="img" aria-label="Functional programming diagram" fill="none">
  <g fill="currentColor">
    <path d="M0 490 l0 -490 1085 0 c657 0 1085 4 1085 9 0 5 -11 22 -24 38 -35
41 -56 124 -56 219 0 46 -5 86 -10 89 -6 4 -71 1 -145 -6 -148 -13 -185 -7
-185 31 0 26 11 28 228 35 l182 7 0 -108 c0 -115 20 -212 49 -237 12 -11 30
-13 81 -6 36 4 164 10 285 14 121 3 294 15 385 27 91 11 165 21 166 22 0 0 -4
61 -9 135 -9 120 -8 136 7 146 9 7 16 19 16 28 0 32 39 40 160 34 181 -10 262
-30 243 -60 -3 -6 -81 -6 -190 -2 l-184 7 5 -33 c3 -19 8 -87 11 -152 6 -114
6 -119 -17 -141 -33 -34 -200 -55 -519 -67 -571 -21 -327 -27 1244 -28 l1617
-1 0 490 0 490 -1187 0 -1186 0 19 -21 c16 -18 19 -37 19 -138 0 -149 1 -151
104 -152 42 0 117 -6 166 -12 83 -11 90 -14 93 -36 l4 -23 -189 7 c-103 3
-196 9 -205 11 -27 8 -38 68 -38 202 0 142 21 127 -160 112 -166 -14 -781 -60
-806 -60 -29 0 -34 -38 -22 -164 8 -90 7 -101 -9 -117 -22 -22 -221 -51 -320
-47 -60 3 -68 5 -68 23 0 18 11 21 118 32 133 14 223 34 221 48 -1 6 -5 60 -9
122 -8 142 -3 153 68 153 57 0 403 24 642 45 131 11 -38 13 -1307 14 l-1458 1
0 -490z m5255 220 c0 -8 -16 -20 -35 -26 -38 -13 -37 -11 -25 -101 7 -45 5
-54 -10 -59 -22 -9 -30 5 -45 76 l-12 58 -39 -2 c-37 -1 -39 -3 -39 -33 0 -69
-97 -136 -141 -97 -37 33 -20 154 22 154 20 0 21 -3 14 -55 -7 -61 1 -69 36
-34 17 17 20 30 16 65 -5 50 6 64 32 40 13 -11 20 -13 28 -5 15 15 119 38 163
36 24 -1 35 -7 35 -17z m-409 -31 c41 -38 24 -94 -35 -119 -24 -10 -30 -19
-33 -48 -2 -29 -8 -38 -24 -40 -27 -4 -34 19 -34 111 0 70 -3 73 -44 57 -23
-8 -25 -15 -28 -72 -3 -57 -5 -63 -25 -66 -22 -3 -23 0 -23 57 l0 60 -32 3
c-25 2 -33 8 -33 23 0 22 33 32 127 39 31 2 65 9 75 15 26 16 82 6 109 -20z
m-963 -30 c113 -47 132 -76 76 -118 -16 -12 -35 -34 -41 -47 -8 -17 -18 -24
-32 -22 -17 2 -21 10 -21 45 0 35 -2 40 -16 32 -9 -4 -83 -10 -165 -11 l-149
-3 0 25 0 25 155 10 155 10 -48 14 c-53 15 -71 36 -55 64 12 22 39 18 141 -24z
m444 -9 c39 -29 41 -29 46 -9 4 15 12 20 29 17 21 -3 23 -7 20 -50 -2 -27 1
-55 6 -63 7 -14 11 -13 27 5 17 18 18 31 12 100 -3 37 28 38 47 1 20 -38 20
-64 -1 -108 -16 -34 -64 -73 -91 -73 -7 0 -23 11 -35 24 -22 24 -23 24 -35 6
-19 -32 -106 -70 -157 -70 -57 0 -85 25 -85 75 0 63 42 126 105 159 43 23 66
20 112 -14z m-3922 -50 c0 -10 -16 -17 -52 -23 l-53 -9 0 -56 c0 -101 2 -103
76 -96 53 6 64 4 64 -8 0 -9 -6 -20 -12 -25 -17 -13 -237 -55 -249 -48 -5 4
-9 14 -9 24 0 13 13 22 43 30 l42 12 -3 81 -4 80 -53 -7 c-47 -5 -55 -4 -64
14 -8 15 -8 22 1 28 19 11 112 21 198 19 59 -1 75 -4 75 -16z m427 3 c10 -9
18 -23 19 -32 0 -10 3 -8 9 7 6 13 18 22 31 22 20 0 21 -3 16 -55 -12 -115 15
-163 60 -111 21 25 22 33 17 95 -7 71 3 94 30 71 9 -6 15 -7 18 -1 4 13 169
24 187 13 23 -16 5 -40 -36 -47 l-39 -6 7 -67 c4 -37 12 -80 18 -95 12 -32 7
-47 -15 -47 -26 0 -52 60 -59 136 -5 51 -11 74 -20 74 -8 0 -21 3 -30 6 -15 6
-16 1 -10 -49 9 -69 -7 -120 -45 -147 -67 -48 -127 -11 -137 84 -5 51 -7 55
-19 37 -8 -11 -35 -27 -60 -37 l-46 -18 6 -49 c5 -32 3 -54 -5 -63 -16 -19
-38 -18 -38 4 0 9 -4 35 -10 57 -6 22 -11 79 -11 126 0 84 0 85 28 96 43 17
113 15 134 -4z m-305 -80 c20 -43 38 -71 39 -63 2 8 6 41 9 73 4 38 12 60 21
64 32 12 36 -12 23 -141 l-13 -126 -27 0 c-30 0 -41 11 -57 55 -11 29 -11 29
-9 -14 2 -51 -14 -64 -37 -29 -11 16 -18 62 -22 141 -7 116 -7 117 15 117 18
0 29 -15 58 -77z m1114 36 c122 -49 141 -90 52 -115 -22 -7 -54 -19 -71 -28
-45 -23 -83 -21 -89 5 -6 21 -10 21 -87 16 -91 -6 -109 -1 -104 34 4 29 30 37
133 38 75 1 78 2 57 17 -21 15 -29 44 -15 57 13 13 47 7 124 -24z"/>
    <path d="M4780 630 c0 -13 5 -20 13 -17 6 2 12 10 12 17 0 7 -6 15 -12 18 -8
2 -13 -5 -13 -18z"/>
    <path d="M3860 575 c7 -8 17 -12 22 -9 6 4 5 10 -3 15 -22 14 -33 10 -19 -6z"/>
    <path d="M4211 595 c-38 -33 -58 -89 -40 -111 27 -33 120 -1 157 54 13 20 12
24 -18 52 -39 37 -59 38 -99 5z"/>
    <path d="M738 549 c-23 -13 -24 -59 -3 -59 18 0 65 43 65 60 0 13 -39 13 -62
-1z"/>
  </g>
</svg>
